<?xml version="1.0" encoding="utf-8"?>
<!-- Generator: Adobe Illustrator 22.0.0, SVG Export Plug-In . SVG Version: 6.00 Build 0)  -->
<svg version="1.1" id="Capa_1" xmlns="http://www.w3.org/2000/svg" xmlns:xlink="http://www.w3.org/1999/xlink" x="0px" y="0px"
	 viewBox="0 0 591.2 472.9" style="enable-background:new 0 0 591.2 472.9;" xml:space="preserve">
<style type="text/css">
	.st0{fill:#2F90E2;}
</style>
<g>
	<g>
		<g>
			<path class="st0" d="M295.4,177.3c-49,0-88.7,39.7-88.7,88.7s39.7,88.7,88.7,88.7s88.7-39.7,88.7-88.7
				C384.1,217,344.3,177.3,295.4,177.3z M531.9,88.6h-71c-9.8,0-20.3-7.6-23.3-16.8l-18.3-55C416.2,7.5,405.7,0,396,0H195
				c-9.8,0-20.3,7.6-23.3,16.8l-18.3,55c-3.1,9.3-13.6,16.8-23.3,16.8h-71C26.6,88.6,0,115.2,0,147.7v266.1
				c0,32.5,26.6,59.1,59.1,59.1h473c32.5,0,59.1-26.6,59.1-59.1V147.7C591,115.2,564.4,88.6,531.9,88.6z M295.4,413.8
				c-81.6,0-147.8-66.2-147.8-147.8s66.2-147.8,147.8-147.8S443.2,184.4,443.2,266S377,413.8,295.4,413.8z M511.2,189.1
				c-11.4,0-20.7-9.3-20.7-20.7c0-11.4,9.3-20.7,20.7-20.7c11.4,0,20.7,9.3,20.7,20.7C531.9,179.8,522.6,189.1,511.2,189.1z"/>
		</g>
	</g>
</g>
</svg>
