<?xml version="1.0" encoding="utf-8"?>
<!-- Generator: Adobe Illustrator 22.0.0, SVG Export Plug-In . SVG Version: 6.00 Build 0)  -->
<svg version="1.1" id="Capa_1" xmlns="http://www.w3.org/2000/svg" xmlns:xlink="http://www.w3.org/1999/xlink" x="0px" y="0px"
	 viewBox="0 0 352.5 472.9" style="enable-background:new 0 0 352.5 472.9;" xml:space="preserve">
<style type="text/css">
	.st0{fill:#636363;}
</style>
<g>
	<g>
		<path class="st0" d="M41.4,450.1c0.5,12.7,11,22.8,23.8,22.8h222.2c12.8,0,23.2-10.1,23.8-22.8L327,115.2H25.5L41.4,450.1z
			 M226.5,198.3c0-5.3,4.3-9.7,9.7-9.7h15.5c5.3,0,9.7,4.3,9.7,9.7v191.4c0,5.3-4.3,9.7-9.7,9.7h-15.5c-5.3,0-9.7-4.3-9.7-9.7V198.3
			z M158.8,198.3c0-5.3,4.3-9.7,9.7-9.7H184c5.3,0,9.7,4.3,9.7,9.7v191.4c0,5.3-4.3,9.7-9.7,9.7h-15.5c-5.3,0-9.7-4.3-9.7-9.7V198.3
			L158.8,198.3z M91.2,198.3c0-5.3,4.3-9.7,9.7-9.7h15.5c5.3,0,9.7,4.3,9.7,9.7v191.4c0,5.3-4.3,9.7-9.7,9.7h-15.5
			c-5.3,0-9.7-4.3-9.7-9.7V198.3z"/>
		<path class="st0" d="M337.5,24.4H235V5c0-2.8-2.2-5-5-5H122.4c-2.8,0-5,2.2-5,5v19.4H14.9C6.7,24.4,0,31,0,39.3v46.9h352.5V39.3
			C352.5,31,345.8,24.4,337.5,24.4z"/>
	</g>
</g>
</svg>
