<svg xmlns="http://www.w3.org/2000/svg" viewBox="0 0 591.2 472.9"><path d="M295.4 177.3c-49 0-88.7 39.7-88.7 88.7s39.7 88.7 88.7 88.7 88.7-39.7 88.7-88.7-39.8-88.7-88.7-88.7zm236.5-88.7h-71c-9.8 0-20.3-7.6-23.3-16.8l-18.3-55C416.2 7.5 405.7 0 396 0H195c-9.8 0-20.3 7.6-23.3 16.8l-18.3 55c-3.1 9.3-13.6 16.8-23.3 16.8h-71C26.6 88.6 0 115.2 0 147.7v266.1c0 32.5 26.6 59.1 59.1 59.1h473c32.5 0 59.1-26.6 59.1-59.1V147.7c-.2-32.5-26.8-59.1-59.3-59.1zM295.4 413.8c-81.6 0-147.8-66.2-147.8-147.8s66.2-147.8 147.8-147.8S443.2 184.4 443.2 266 377 413.8 295.4 413.8zm215.8-224.7c-11.4 0-20.7-9.3-20.7-20.7 0-11.4 9.3-20.7 20.7-20.7 11.4 0 20.7 9.3 20.7 20.7 0 11.4-9.3 20.7-20.7 20.7z" fill="#2f90e2"/></svg>