<svg xmlns="http://www.w3.org/2000/svg" viewBox="0 0 352.5 472.9"><path d="M41.4 450.1c.5 12.7 11 22.8 23.8 22.8h222.2c12.8 0 23.2-10.1 23.8-22.8L327 115.2H25.5l15.9 334.9zm185.1-251.8c0-5.3 4.3-9.7 9.7-9.7h15.5c5.3 0 9.7 4.3 9.7 9.7v191.4c0 5.3-4.3 9.7-9.7 9.7h-15.5c-5.3 0-9.7-4.3-9.7-9.7V198.3zm-67.7 0c0-5.3 4.3-9.7 9.7-9.7H184c5.3 0 9.7 4.3 9.7 9.7v191.4c0 5.3-4.3 9.7-9.7 9.7h-15.5c-5.3 0-9.7-4.3-9.7-9.7V198.3zm-67.6 0c0-5.3 4.3-9.7 9.7-9.7h15.5c5.3 0 9.7 4.3 9.7 9.7v191.4c0 5.3-4.3 9.7-9.7 9.7h-15.5c-5.3 0-9.7-4.3-9.7-9.7V198.3zM337.5 24.4H235V5c0-2.8-2.2-5-5-5H122.4c-2.8 0-5 2.2-5 5v19.4H14.9C6.7 24.4 0 31 0 39.3v46.9h352.5V39.3c0-8.3-6.7-14.9-15-14.9z" fill="#636363"/></svg>